<?xml version="1.0" encoding="utf-8"?>
<!-- Generator: Adobe Illustrator 19.0.0, SVG Export Plug-In . SVG Version: 6.00 Build 0)  -->
<svg version="1.1" id="Layer_1" xmlns="http://www.w3.org/2000/svg" xmlns:xlink="http://www.w3.org/1999/xlink" x="0px" y="0px"
	 viewBox="-1331.4 670.6 362.8 411.4" style="enable-background:new -1331.4 670.6 362.8 411.4;" xml:space="preserve">
<style type="text/css">
	.st0{fill:#E44D26;}
	.st1{fill:#F16529;}
	.st2{fill:#EBEBEB;}
	.st3{fill:#FFFFFF;}
</style>
<title>HTML5 Logo</title>
<polygon class="st0" points="-1298.4,1040.9 -1331.4,670.6 -968.6,670.6 -1001.7,1040.8 -1150.2,1082 "/>
<polygon class="st1" points="-1150,1050.5 -1030,1017.2 -1001.7,700.9 -1150,700.9 "/>
<polygon class="st2" points="-1150,838.2 -1210.1,838.2 -1214.2,791.7 -1150,791.7 -1150,746.3 -1150.2,746.3 -1263.9,746.3 
	-1262.8,758.5 -1251.6,883.6 -1150,883.6 "/>
<polygon class="st2" points="-1150,956.2 -1150.2,956.2 -1200.8,942.5 -1204,906.3 -1228.6,906.3 -1249.6,906.3 -1243.2,977.6 
	-1150.2,1003.5 -1150,1003.4 "/>
<polygon class="st3" points="-1150.2,838.2 -1150.2,883.6 -1094.2,883.6 -1099.5,942.5 -1150.2,956.2 -1150.2,1003.4 -1057.1,977.6 
	-1056.4,970 -1045.7,850.4 -1044.6,838.2 -1056.8,838.2 "/>
<polygon class="st3" points="-1150.2,746.3 -1150.2,774.5 -1150.2,791.6 -1150.2,791.7 -1040.6,791.7 -1040.6,791.7 -1040.5,791.7 
	-1039.6,781.5 -1037.5,758.5 -1036.4,746.3 "/>
</svg>
