<?xml version="1.0" encoding="utf-8"?>
<!-- Generator: Adobe Illustrator 19.0.0, SVG Export Plug-In . SVG Version: 6.00 Build 0)  -->
<svg version="1.1" id="Layer_1" xmlns="http://www.w3.org/2000/svg" xmlns:xlink="http://www.w3.org/1999/xlink" x="0px" y="0px"
	 viewBox="290 -583 2500 2246" style="enable-background:new 290 -583 2500 2246;" xml:space="preserve">
<style type="text/css">
	.st0{fill:#53C1DE;}
	.st1{fill:#FFFFFF;}
</style>
<path class="st0" d="M2253.1,195c-23.5-8.1-47.2-15.5-71-22.4c4-16.1,7.6-32.2,11-48.4c53.8-261,18.6-471.3-101.4-540.5
	c-115.1-66.4-303.4,2.8-493.5,168.3c-18.7,16.3-37.1,33.2-54.9,50.4c-12-11.5-24.2-22.7-36.6-33.8
	c-199.3-176.9-399-251.5-518.9-182.1C872.7-346.8,838.6-149.2,887,98.2c4.8,24.5,10.3,48.9,16.3,73.1c-28.3,8-55.6,16.6-81.7,25.7
	C588,278.4,438.9,406.1,438.9,538.5c0,136.8,160.1,273.9,403.5,357.1c19.7,6.7,39.6,12.9,59.7,18.7c-6.5,26.1-12.3,52.4-17.3,78.8
	c-46.2,243.1-10.1,436,104.6,502.2c118.5,68.3,317.3-1.9,510.9-171.1c15.3-13.4,30.7-27.6,46-42.4c19.4,18.7,39.3,36.8,59.6,54.4
	c187.5,161.4,372.7,226.5,487.3,160.2c118.4-68.5,156.8-275.8,106.9-528.1c-3.8-19.3-8.3-38.9-13.2-59c14-4.1,27.7-8.4,41-12.8
	c253-83.8,417.5-219.3,417.5-357.9C2645.4,405.6,2491.4,277.1,2253.1,195L2253.1,195z"/>
<path class="st1" d="M2198.2,806.9c-12.1,4-24.4,7.9-37.1,11.6c-27.9-88.4-65.6-182.4-111.7-279.5c44-94.8,80.2-187.6,107.4-275.5
	c22.6,6.5,44.5,13.4,65.6,20.7c204.2,70.3,328.7,174.2,328.7,254.3C2551.1,623.8,2416.6,734.5,2198.2,806.9L2198.2,806.9z
	 M2107.6,986.4c22.1,111.5,25.2,212.4,10.6,291.2c-13.1,70.8-39.6,118.1-72.2,137c-69.5,40.3-218.3-12.1-378.6-150.1
	c-18.4-15.8-36.9-32.7-55.5-50.6c62.2-68,124.3-147.1,185-234.9c106.7-9.5,207.5-24.9,298.8-46.1
	C2100.1,951.2,2104.1,969,2107.6,986.4L2107.6,986.4z M1191.1,1407.7c-67.9,24-122,24.7-154.7,5.8c-69.6-40.1-98.5-195.1-59.1-403
	c4.7-24.6,10.1-49,16.1-73.3c90.4,20,190.4,34.4,297.4,43c61,85.9,125,164.9,189.4,234c-13.7,13.2-27.7,26.2-42,38.7
	C1352.5,1327.9,1266.7,1381,1191.1,1407.7L1191.1,1407.7z M872.8,806.3c-107.6-36.8-196.4-84.6-257.4-136.7
	c-54.7-46.9-82.4-93.4-82.4-131.2c0-80.3,119.8-182.8,319.6-252.5c25.1-8.7,50.4-16.7,75.9-23.9c27.6,89.8,63.8,183.7,107.5,278.7
	c-44.3,96.4-81,191.8-108.9,282.6C909,818.2,890.8,812.5,872.8,806.3z M979.5,80.1c-41.5-211.9-13.9-371.8,55.4-411.9
	c73.8-42.7,237.1,18.2,409.1,171c11,9.8,22,20,33.1,30.6c-64.1,68.8-127.4,147.2-188,232.6c-103.8,9.6-203.1,25.1-294.4,45.8
	C989.1,125.5,984,102.9,979.5,80.1L979.5,80.1z M1931.3,315.1c-21.6-37.3-43.9-74.1-67.1-110.3c70.4,8.9,137.9,20.7,201.2,35.2
	c-19,60.9-42.7,124.7-70.6,190C1974.4,391.2,1953.2,353,1931.3,315.1L1931.3,315.1z M1543.2-62.9c43.5,47.1,87,99.7,129.8,156.8
	c-86.9-4.1-173.9-4.1-260.8-0.1C1455.1,37.2,1499-15.3,1543.2-62.9L1543.2-62.9z M1152.5,315.8c-21.6,37.5-42.4,75.6-62.3,114.1
	c-27.5-65.1-50.9-129.1-70.1-190.9c63-14.1,130.1-25.6,200-34.3C1196.8,241.1,1174.2,278.2,1152.5,315.8z M1222.2,879
	c-72.3-8.1-140.4-19-203.4-32.7c19.5-62.9,43.5-128.3,71.5-194.8c20,38.5,40.8,76.6,62.6,114.2C1175.1,804,1198.2,841.8,1222.2,879z
	 M1545.8,1146.5c-44.7-48.2-89.2-101.5-132.8-158.9c42.2,1.7,85.3,2.5,129.1,2.5c45,0,89.4-1,133.2-3
	C1632.3,1045.6,1588.9,1099,1545.8,1146.5z M1995.7,648.2c29.5,67.2,54.4,132.3,74.1,194.1c-64,14.6-133.1,26.4-205.8,35.1
	c23.3-37,45.9-74.4,67.7-112.3C1953.9,726.6,1975.2,687.6,1995.7,648.2L1995.7,648.2z M1850,718c-33.4,58.1-68.7,115-105.9,170.8
	c-65.5,4.7-133.1,7.1-202.1,7.1c-68.7,0-135.5-2.1-199.8-6.3c-38.1-55.6-74.1-112.7-107.8-171.1c-33.6-58-65-117.4-94.1-177.8
	c29-60.5,60.3-119.8,93.9-177.9v0c33.5-58.1,69.2-114.9,107-170.3c65.6-5,132.9-7.6,200.9-7.6c68.3,0,135.7,2.6,201.3,7.6
	c37.4,55.3,72.9,111.9,106.3,169.7c33.6,58,65.3,117,95.1,177C1915.4,600,1883.7,659.6,1850,718L1850,718z M2044.5-334.6
	c73.9,42.6,102.6,214.5,56.2,439.8c-3,14.7-6.4,29.3-9.9,43.9c-91.5-21.1-190.9-36.8-295-46.6c-60.6-86.3-123.5-164.8-186.5-232.8
	c16.5-15.9,33.4-31.4,50.7-46.5C1822.9-318.7,1975.1-374.6,2044.5-334.6L2044.5-334.6z"/>
<path class="st0" d="M1542.1,341.4c108.8,0,197,88.2,197,197c0,108.8-88.2,197-197,197c-108.8,0-197-88.2-197-197
	C1345.1,429.6,1433.3,341.4,1542.1,341.4"/>
</svg>
