<svg xmlns="http://www.w3.org/2000/svg" xmlns:xlink="http://www.w3.org/1999/xlink" preserveAspectRatio="xMidYMid" width="27.43" height="21.1" viewBox="0 0 130 100">
  <defs>
    <style>
      .cls-1 {
        fill: #1dafed;
      }

      .cls-2 {
        fill: #ddd;
      }

      .cls-3 {
        fill: #6c6e71;
        fill-rule: evenodd;
      }
    </style>
  </defs>
  <g>
    <rect x="27" y="12" width="92" height="5" rx="2" ry="2" class="cls-1"/>
    <rect x="7" y="43" width="31" height="5" rx="2" ry="2" class="cls-1"/>
    <rect x="96" y="22" width="23" height="40" rx="2" ry="2" class="cls-1"/>
    <rect x="51" y="22" width="38" height="40" rx="2" ry="2" class="cls-2"/>
    <rect x="27" y="22" width="14" height="10" rx="2" ry="2" class="cls-2"/>
    <rect x="7" y="52" width="31" height="36" rx="2" ry="2" class="cls-2"/>
    <path d="M123.619,83.369 L53.163,83.369 C53.163,83.369 50.540,83.369 50.540,80.074 C50.540,78.118 50.540,74.206 50.540,72.250 C50.540,68.952 53.081,68.956 53.081,68.956 L125.170,68.956 L125.170,6.407 C125.170,5.563 124.460,4.849 123.619,4.849 L22.503,4.849 C21.662,4.849 20.951,5.563 20.951,6.407 C20.951,6.407 20.951,18.593 20.951,23.077 C20.951,25.327 21.205,25.640 19.967,25.640 C19.088,25.640 18.219,25.640 17.435,25.640 C15.959,25.640 16.123,25.327 16.123,23.118 C16.123,18.624 16.123,6.407 16.123,6.407 C16.123,2.874 18.985,0.000 22.503,0.000 L123.619,0.000 C127.138,0.000 130.000,2.874 130.000,6.407 L130.000,76.962 C130.000,80.495 127.137,83.369 123.619,83.369 ZM73.061,72.063 C71.473,72.063 70.186,73.356 70.186,74.950 C70.186,76.544 71.473,77.837 73.061,77.837 C74.648,77.837 75.936,76.544 75.936,74.950 C75.936,73.356 74.648,72.063 73.061,72.063 ZM44.815,35.497 L44.815,95.865 C44.815,98.145 42.967,100.000 40.697,100.000 L4.118,100.000 C1.847,100.000 0.000,98.145 0.000,95.865 L0.000,35.497 C0.000,33.217 1.847,31.362 4.118,31.362 L40.697,31.362 C42.967,31.362 44.815,33.217 44.815,35.497 ZM22.353,97.095 C23.530,97.095 24.484,96.137 24.484,94.956 C24.484,93.774 23.530,92.816 22.353,92.816 C21.176,92.816 20.222,93.774 20.222,94.956 C20.222,96.137 21.176,97.095 22.353,97.095 ZM26.920,35.579 L17.895,35.579 C17.464,35.579 17.115,35.930 17.115,36.363 C17.115,36.796 17.464,37.146 17.895,37.146 L26.920,37.146 C27.350,37.146 27.700,36.796 27.700,36.363 C27.700,35.930 27.350,35.579 26.920,35.579 ZM4.516,39.640 C3.979,39.640 3.539,40.091 3.539,40.643 L3.539,90.806 C3.539,91.358 3.979,91.810 4.516,91.810 L40.300,91.810 C40.837,91.810 41.277,91.358 41.277,90.806 L41.277,40.643 C41.277,40.092 40.837,39.640 40.300,39.640 L4.516,39.640 ZM51.443,93.671 L62.096,93.671 C62.607,93.671 63.025,93.252 63.025,92.738 L63.025,89.275 C63.025,88.761 63.443,88.341 63.955,88.341 L83.783,88.341 C84.294,88.341 84.712,88.761 84.712,89.275 L84.712,92.738 C84.712,93.252 85.130,93.671 85.641,93.671 L99.812,93.671 C100.323,93.671 100.741,94.091 100.740,94.604 L100.740,98.610 C100.740,99.123 100.322,99.543 99.811,99.543 L51.443,99.543 C50.931,99.543 50.513,99.123 50.513,98.610 L50.513,94.604 C50.513,94.090 50.931,93.671 51.443,93.671 Z" class="cls-3"/>
  </g>
</svg>
